<?xml version="1.0" encoding="UTF-8"?>
<svg id="Calque_2" xmlns="http://www.w3.org/2000/svg" xmlns:xlink="http://www.w3.org/1999/xlink" viewBox="0 0 401.87 418.89">
  <defs>
    <style>
      .cls-1 {
        filter: url(#drop-shadow-1);
      }

      .cls-2 {
        filter: url(#drop-shadow-2);
      }

      .cls-3 {
        fill: #757575;
      }

      .cls-4 {
        fill: url(#Dégradé_sans_nom_10);
      }

      .cls-5 {
        fill: url(#Dégradé_sans_nom_59);
      }

      .cls-6 {
        fill: url(#Dégradé_sans_nom_57);
      }
    </style>
    <filter id="drop-shadow-1" x="97.62" y="-4.14" width="201" height="445" filterUnits="userSpaceOnUse">
      <feOffset dx="6.75" dy="6.75"/>
      <feGaussianBlur result="blur" stdDeviation="4.82"/>
      <feFlood flood-color="#222221" flood-opacity=".51"/>
      <feComposite in2="blur" operator="in"/>
      <feComposite in="SourceGraphic"/>
    </filter>
    <linearGradient id="Dégradé_sans_nom_57" data-name="Dégradé sans nom 57" x1="161.14" y1="337.49" x2="247.64" y2="5.07" gradientTransform="translate(32.45 -5.52) rotate(12)" gradientUnits="userSpaceOnUse">
      <stop offset=".06" stop-color="#edc579"/>
      <stop offset=".07" stop-color="#e9c47c"/>
      <stop offset=".25" stop-color="#c6c1a3"/>
      <stop offset=".42" stop-color="#aabfc2"/>
      <stop offset=".58" stop-color="#96bed8"/>
      <stop offset=".74" stop-color="#8bbde5"/>
      <stop offset=".88" stop-color="#87bdea"/>
    </linearGradient>
    <filter id="drop-shadow-2" x="213.93" y="-7.83" width="197" height="449" filterUnits="userSpaceOnUse">
      <feOffset dx="6.61" dy="6.61"/>
      <feGaussianBlur result="blur-2" stdDeviation="4.72"/>
      <feFlood flood-color="#222221" flood-opacity=".51"/>
      <feComposite in2="blur-2" operator="in"/>
      <feComposite in="SourceGraphic"/>
    </filter>
    <linearGradient id="Dégradé_sans_nom_59" data-name="Dégradé sans nom 59" x1="283.76" y1="48.12" x2="372.98" y2="367.98" gradientTransform="translate(-7.62 65.5) rotate(-1)" gradientUnits="userSpaceOnUse">
      <stop offset=".16" stop-color="#87bdea"/>
      <stop offset=".3" stop-color="#8bbde5"/>
      <stop offset=".45" stop-color="#96bed8"/>
      <stop offset=".6" stop-color="#aabfc2"/>
      <stop offset=".76" stop-color="#c6c1a3"/>
      <stop offset=".93" stop-color="#e9c47c"/>
      <stop offset=".94" stop-color="#edc579"/>
    </linearGradient>
    <linearGradient id="Dégradé_sans_nom_10" data-name="Dégradé sans nom 10" x1="249.09" y1="272.01" x2="250.73" y2="343.27" gradientUnits="userSpaceOnUse">
      <stop offset=".17" stop-color="#757575"/>
      <stop offset=".58" stop-color="#333334"/>
    </linearGradient>
  </defs>
  <g id="Simple">
    <path class="cls-3" d="M124.36,157.71c83.03-94.01,235.57-62.76,271.56,58.16,16.54,57.3-2.04,120.17-47.7,158.71-38.52,32.96-92.29,44.27-140.73,29.29-13.53-4.11-26.4-10.22-38.13-17.95-2.29-1.51-2.93-4.6-1.42-6.89,1.47-2.23,4.44-2.89,6.71-1.53,22.45,13.54,48.71,20.28,74.6,19.4,5.64-.09,11.29-.76,16.87-1.53,72.91-11.14,124.17-81.64,110.67-154.18-10.94-62.41-67.36-108.57-130.69-105.82-18,.72-35.61,5.34-51.65,13.38-3.8,2.01-7.96,4.33-11.55,6.71,0,0-1.88,1.19-1.88,1.19l-1.8,1.31c-9.71,6.85-18.42,15.02-25.82,24.21-6.58,8.16-18.53,9.44-26.69,2.86-8.4-6.74-9.47-19.24-2.34-27.31h0Z"/>
    <g class="cls-1">
      <path class="cls-6" d="M274.63,20.49c-.83,1.66-1.67,3.31-2.5,4.95-15,30.73-28.24,63.14-43.71,98.49-11.06,24.59-22.25,53.89-32.06,79.46,12.04-30.01,24.42-60.76,37.25-90.71,12.81-29.96,26.04-59.16,39.59-86.04-.81,3.25-1.8,6.72-2.99,10.39-1.19,3.67-2.6,7.51-4.31,11.47-2.14,4.69-4.28,9.35-6.38,14.04-2.09,4.7-4.17,9.38-6.24,14.05-4.16,9.34-8.18,18.74-12.2,28.08-.38-.32-1.13-.96-1.5-1.28-2.67,6.81-5.3,13.57-7.99,20.23-2.69,6.66-5.41,13.23-8.09,19.8-5.43,13.09-10.82,26.07-16.2,39.05-10.69,26.03-21.13,52.33-30.34,80.54.94-1.82.84-.44.94.14-.05.14-.1.27-.14.39.05-.13.09-.26.14-.39.09.52.35.41,1.63-3.01-1.28,3.42-1.54,3.53-1.63,3.01,9.83-27.21,19.81-53.25,30.07-79.04,10.28-25.78,20.94-51.24,32.2-77.3-2.18,5.06-4.29,10.16-6.42,15.24-2.12,5.09-4.23,10.16-6.34,15.23-2.08,5.1-4.15,10.19-6.22,15.28-2.07,5.09-4.13,10.17-6.15,15.29-4.05,10.22-8.11,20.41-12.05,30.7l-5.94,15.4c-1.95,5.16-3.9,10.32-5.85,15.48-7.81,20.65-15.41,41.53-23.04,62.62-1.88,5.29-3.77,10.59-5.66,15.9-1.89,5.32-3.81,10.63-5.67,16-3.74,10.72-7.56,21.48-11.29,32.38-1.28,3.71-3.85,11.14-5.13,14.85-3.15,7.11-6.09,14.35-8.88,21.67-1.4,3.66-2.74,7.35-4.03,11.06-1.3,3.71-2.57,7.44-3.81,11.18-.85-4.79-10.05,8.16.79-21.5-.42-.21-1.25-.65-1.67-.86-12.09,29.01-21.79,37.67-13.39,6.44,2.39-8.76,5.32-18.1,8.52-27.85,3.17-9.77,6.73-19.88,10.36-30.24,1.81-5.18,3.69-10.4,5.57-15.64,1.87-5.25,3.76-10.53,5.64-15.81,3.79-10.54,7.52-21.12,11.05-31.54,10.47-30.2,21.29-60.26,33.51-89.24,16.89-39.76,34.22-83.97,52.52-122.34,1.62-3.52,3.44-7.8,5.31-12.34.93-2.27,1.89-4.61,2.84-6.94.96-2.32,1.93-4.65,2.87-6.91,3.78-9.05,7.26-17.14,9.37-20.19,2.78-4.63,3.64-4.08,4.17-2.47-2.62,5.81-5.16,11.68-7.72,17.52-2.55,5.86-5.13,11.67-7.64,17.54-5.04,11.72-10.08,23.38-15.01,35.05-12.38,28.38-24.61,56.95-36.81,85.57,12.24-27.76,24.43-56.48,36.81-85.57,10.05-23.1,20.31-46.02,30.75-68.7.38,1.55.8,3.1,2.14,2.39,0,0,3.12-7.1,4.68-10.65,8.06-12.44,9.02-6.35,7.75,2.46-.42,2.16-.89,4.58-1.46,7.23Z"/>
    </g>
    <g class="cls-2">
      <path class="cls-5" d="M379.18,407.6c-.54-1.84-1.09-3.68-1.62-5.5-10.32-33.63-22.57-66.58-35.51-103.46-8.84-25.91-20.43-54.92-30.58-80.27,11.64,30.22,23.48,61.26,34.57,92.25,11.1,30.98,21.47,61.9,30.29,91.76-2.94-5.63-6.15-12.45-9.05-20.69-1.66-4.99-3.29-9.97-4.98-14.92-1.69-4.94-3.38-9.87-5.07-14.79-3.35-9.84-6.84-19.57-10.29-29.27.38-.15,1.13-.45,1.51-.6-10.7-27.22-20.23-53.85-30.19-80.34-9.96-26.48-20.23-52.85-32.34-79.37.6,2.02-.17,1.03-.57.75-.06-.13-.11-.26-.16-.38.05.12.1.25.16.38-.36-.25-.43.05.96,3.41-1.38-3.36-1.31-3.66-.96-3.41,11.19,26.43,21.56,52.24,31.6,78.18,10.02,25.95,19.6,52.08,29.21,79.16-15.06-42-30.93-82.82-47.53-123.59-8.28-20.39-16.85-40.72-25.54-61.21-8.78-20.44-17.69-41.05-26.93-61.85-1.57-3.54-4.72-10.64-6.29-14.19-2.65-7.39-5.49-14.67-8.46-21.88-2.96-7.22-6.15-14.3-9.37-21.35,3.39,2.46.44-13.84,12.71,14.89.35-.21,1.07-.63,1.42-.84-11.2-29.36-11.2-43.11,3.28-15.52,16.11,31.16,33.77,74.96,51.27,114.33,12.61,28.73,24.87,57.67,35.74,87.23,14.84,40.69,31.99,84.65,45.09,125.94,1.23,3.74,2.81,8.13,4.51,12.75,1.7,4.61,3.51,9.44,5.18,14.07,3.35,9.24,6.3,17.59,7,21.51,1.28,5.54.54,6.04-.66,5.54-8.32-24.44-16.87-48.72-25.49-72.66-10.33-29.47-20.88-58.88-31.54-88.25,10.12,28.86,20.8,58.33,31.54,88.25,8.42,23.96,16.58,48.03,24.49,72.16-1.09-.6-2.2-1.15-2.45.58,0,0,2.55,7.41,3.82,11.12,3.17,15.5-.82,12.69-5.29,5.98-1.04-1.75-2.21-3.71-3.46-5.91Z"/>
    </g>
    <path class="cls-3" d="M.28,248.01c44.9-19.19,95.53-15.24,142.53-7.1.82.14,1.36.92,1.22,1.74-.15.82-.94,1.37-1.76,1.21-35.19-6.66-71.56-10.7-107.13-4.77-11.8,2-23.42,5.18-34.49,9.79-.24.1-.51-.01-.61-.25-.1-.24.01-.51.25-.61H.28Z"/>
    <path class="cls-3" d="M19,327.89c29.11-29.59,68.23-46,109.84-44.88.83.01,1.49.69,1.48,1.52-.01.84-.71,1.5-1.55,1.48-30.07-1.1-60.46,6.9-85.45,23.84-8.36,5.57-16.17,11.97-23.42,18.96-.25.25-.66.24-.91-.01-.24-.25-.24-.66,0-.9h0Z"/>
    <path class="cls-3" d="M15.06,295.15c29.77-29.04,73.78-34.83,113.65-32.86.83.04,1.47.74,1.43,1.56-.04.84-.76,1.49-1.61,1.43-39.52-2.94-83.22,1.76-113.48,29.86h0Z"/>
    <path class="cls-4" d="M268.03,286.28c9.19,5.96-14.19,34.98-17.66,34.59-1.57-.18-29.53-28.61-19.2-34.4,13.32-7.46,30.67-4.21,36.86-.19Z"/>
  </g>
</svg>